# xmcd
#
# Track frame offsets: 
#        150
#        17133
#        33510
#        54128
#        70595
#        101225
#        121504
#        144901
#        165528
#        190653
#        209459
#        227450
#
# Disc length: 3287 seconds
#
# Revision: 1
# Processed by: cddbd v1.5.2PL0 Copyright (c) Steve Scherf et al.
# Submitted via: ExactAudioCopyFreeDBPlugin 1.0
#
DISCID=910cd50c
DTITLE=Kenny Parker - Raise the Dead
DYEAR=1996
DGENRE=Modern Electric Blues
TTITLE0=Kenny Parker feat Darrell Nulisch - Too Hot for Me
TTITLE1=Kenny Parker feat Darrell Nulisch - Your Girl's Gone Bad
TTITLE2=Kenny Parker feat Darrell Nulisch - Take It Easy on a Fool
TTITLE3=Kenny Parker feat Darrell Nulisch - She's the One for Me
TTITLE4=Kenny Parker feat the Butler Twins - Shake Hands With the Devi
TTITLE4=l
TTITLE5=Baby Cakes Bop
TTITLE6=Kenny Parker feat Somerville Slim - Cryin' for Help
TTITLE7=Kenny Parker feat the Butler Twins - You're So Sharp
TTITLE8=Blues for Mr. Bo
TTITLE9=Kenny Parker feat Darrell Nulisch - Crazy 'Bout My Baby
TTITLE10=Brunoise
TTITLE11=Afterglow
EXTD=YEAR: 1996
EXTT0=
EXTT1=
EXTT2=
EXTT3=
EXTT4=
EXTT5=
EXTT6=
EXTT7=
EXTT8=
EXTT9=
EXTT10=
EXTT11=
PLAYORDER=
